<svg width="16" height="16" viewBox="0 0 24 24" xmlns="http://www.w3.org/2000/svg">
	<path fill="currentColor" d="M4 20V14C4 11.8783 4.84286 9.84344 6.34315 8.34315C7.84344 6.84285 9.87827 6 12 6C14.1217 6 16.1566 6.84285 17.6569 8.34315C19.1571 9.84344 20 11.8783 20 14V20H21V22H3V20H4ZM6 20H18V14C18 12.4087 17.3679 10.8826 16.2426 9.75736C15.1174 8.63214 13.5913 8 12 8C10.4087 8 8.88258 8.63214 7.75736 9.75736C6.63214 10.8826 6 12.4087 6 14V20ZM11 2H13V5H11V2ZM19.778 4.808L21.192 6.222L19.072 8.343L17.657 6.929L19.778 4.808ZM2.808 6.222L4.222 4.808L6.343 6.928L4.93 8.344L2.808 6.222ZM7 14C7 12.6739 7.52678 11.4021 8.46447 10.4645C9.40215 9.52678 10.6739 9 12 9V11C11.2044 11 10.4413 11.3161 9.87868 11.8787C9.31607 12.4413 9 13.2044 9 14H7Z" fill="currentColor" />
</svg>
