<svg width="8" height="8" viewBox="0 0 8 8" fill="none" xmlns="http://www.w3.org/2000/svg">
	<path d="M4 7.33333C2.159 7.33333 0.666667 5.841 0.666667 4C0.666667 2.159 2.159 0.666667 4 0.666667C5.841 0.666667 7.33333 2.159 7.33333 4C7.33333 5.841 5.841 7.33333 4 7.33333ZM4 6.66667C4.70724 6.66667 5.38552 6.38571 5.88562 5.88562C6.38571 5.38552 6.66667 4.70724 6.66667 4C6.66667 3.29276 6.38571 2.61448 5.88562 2.11438C5.38552 1.61428 4.70724 1.33333 4 1.33333C3.29276 1.33333 2.61448 1.61428 2.11438 2.11438C1.61428 2.61448 1.33333 3.29276 1.33333 4C1.33333 4.70724 1.61428 5.38552 2.11438 5.88562C2.61448 6.38571 3.29276 6.66667 4 6.66667V6.66667Z" fill="currentColor" />
</svg>
