<svg width="16" height="16" viewBox="0 0 24 24" xmlns="http://www.w3.org/2000/svg">
	<path fill="currentColor" d="M5.463 4.433C7.27756 2.86066 9.59899 1.99665 12 2C17.523 2 22 6.477 22 12C22 14.136 21.33 16.116 20.19 17.74L17 12H20C20.0001 10.4316 19.5392 8.8978 18.6747 7.58926C17.8101 6.28071 16.5799 5.25516 15.1372 4.64012C13.6944 4.02509 12.1027 3.8477 10.56 4.13002C9.0172 4.41233 7.59145 5.1419 6.46 6.228L5.463 4.433ZM18.537 19.567C16.7224 21.1393 14.401 22.0033 12 22C6.477 22 2 17.523 2 12C2 9.864 2.67 7.884 3.81 6.26L7 12H4C3.99987 13.5684 4.46075 15.1022 5.32534 16.4107C6.18992 17.7193 7.42007 18.7448 8.86282 19.3599C10.3056 19.9749 11.8973 20.1523 13.44 19.87C14.9828 19.5877 16.4085 18.8581 17.54 17.772L18.537 19.567Z" fill="currentColor" />
</svg>

