<svg width="16" height="16" viewBox="0 0 16 16" xmlns="http://www.w3.org/2000/svg">
	<path fill="currentColor" d="M10.6667 10.6667C11.7713 10.6667 12.6667 11.562 12.6667 12.6667C12.6667 13.7713 11.7713 14.6667 10.6667 14.6667C9.562 14.6667 8.66667 13.7713 8.66667 12.6667C8.66667 11.562 9.562 10.6667 10.6667 10.6667ZM4 8C5.47333 8 6.66667 9.19333 6.66667 10.6667C6.66667 12.14 5.47333 13.3333 4 13.3333C2.52667 13.3333 1.33333 12.14 1.33333 10.6667C1.33333 9.19333 2.52667 8 4 8ZM10.6667 12C10.2987 12 10 12.2987 10 12.6667C10 13.0347 10.2987 13.3333 10.6667 13.3333C11.0347 13.3333 11.3333 13.0347 11.3333 12.6667C11.3333 12.2987 11.0347 12 10.6667 12ZM4 9.33333C3.26333 9.33333 2.66667 9.93 2.66667 10.6667C2.66667 11.4033 3.26333 12 4 12C4.73667 12 5.33333 11.4033 5.33333 10.6667C5.33333 9.93 4.73667 9.33333 4 9.33333ZM9.66667 1.33333C11.692 1.33333 13.3333 2.97467 13.3333 5C13.3333 7.02533 11.692 8.66667 9.66667 8.66667C7.64133 8.66667 6 7.02533 6 5C6 2.97467 7.64133 1.33333 9.66667 1.33333ZM9.66667 2.66667C8.378 2.66667 7.33333 3.71133 7.33333 5C7.33333 6.28867 8.378 7.33333 9.66667 7.33333C10.9553 7.33333 12 6.28867 12 5C12 3.71133 10.9553 2.66667 9.66667 2.66667Z" fill="currentColor" />
</svg>
