<svg width="16" height="16" viewBox="0 0 16 16" fill="none" xmlns="http://www.w3.org/2000/svg">
	<g clipPath="url(#clip0_5_14)">
		<path d="M8 14.6667C4.318 14.6667 1.33333 11.682 1.33333 8C1.33333 4.318 4.318 1.33333 8 1.33333C9.0351 1.33256 10.0561 1.57318 10.982 2.03609C11.9078 2.49901 12.7129 3.17145 13.3333 4H11.5267C10.7568 3.32117 9.80745 2.8789 8.79248 2.72627C7.7775 2.57363 6.74004 2.7171 5.80459 3.13947C4.86914 3.56185 4.07543 4.24517 3.51871 5.10746C2.96199 5.96974 2.66591 6.97435 2.666 8.00074C2.66608 9.02712 2.96233 10.0317 3.51919 10.8939C4.07606 11.7561 4.86988 12.4393 5.8054 12.8615C6.74092 13.2837 7.77841 13.427 8.79336 13.2742C9.8083 13.1214 10.7576 12.679 11.5273 12H13.334C12.7135 12.8286 11.9083 13.5011 10.9823 13.9641C10.0564 14.427 9.03522 14.6675 8 14.6667V14.6667ZM12.6667 10.6667V8.66667H7.33333V7.33333H12.6667V5.33333L16 8L12.6667 10.6667Z" fill="currentColor" />
	</g>
	<defs>
		<clipPath id="clip0_5_14">
			<rect width="16" height="16" fill="white" />
		</clipPath>
	</defs>
</svg>
