<svg width="16" height="16" viewBox="0 0 12 8" xmlns="http://www.w3.org/2000/svg">
	<path d="M0 8V0H2.88728C3.51483 0 4.0356 0.106771 4.44957 0.320312C4.86618 0.533854 5.17732 0.829427 5.38299 1.20703C5.58866 1.58203 5.6915 2.01563 5.6915 2.50781C5.6915 2.9974 5.58734 3.42839 5.37904 3.80078C5.17337 4.17057 4.86223 4.45833 4.44562 4.66406C4.03164 4.86979 3.51088 4.97266 2.88332 4.97266H0.696111V3.93359H2.77258C3.16809 3.93359 3.48978 3.8776 3.73764 3.76563C3.98813 3.65365 4.17139 3.49089 4.28741 3.27734C4.40343 3.0638 4.46144 2.80729 4.46144 2.50781C4.46144 2.20573 4.40211 1.94401 4.28345 1.72266C4.16744 1.5013 3.98418 1.33203 3.73368 1.21484C3.48583 1.09505 3.16018 1.03516 2.75676 1.03516H1.22215V8H0ZM3.99868 4.39063L6 8H4.60778L2.64601 4.39063H3.99868Z" fill="currentColor" />
	<path d="M9.37229 0C10.2373 0 10.8906 0.336788 11.3322 1.01036C11.7774 1.68394 12 2.68048 12 4C12 5.31952 11.7774 6.31606 11.3322 6.98964C10.8906 7.66321 10.2373 8 9.37229 8C8.50724 8 7.85393 7.66321 7.41236 6.98964C6.97079 6.31606 6.75 5.31952 6.75 4C6.75 2.68048 6.97079 1.68394 7.41236 1.01036C7.85393 0.336788 8.50724 0 9.37229 0ZM9.37229 7.17098C9.88625 7.17098 10.2681 6.91019 10.5178 6.3886C10.7712 5.86701 10.8979 5.07081 10.8979 4C10.8979 3.43005 10.8617 2.91537 10.7893 2.45596L8.20502 6.31606C8.47647 6.88601 8.86556 7.17098 9.37229 7.17098ZM9.37229 0.829016C8.86194 0.829016 8.48009 1.08981 8.22673 1.6114C7.97699 2.13299 7.85212 2.92919 7.85212 4C7.85212 4.48705 7.8865 4.94301 7.95527 5.36788L10.4853 1.51813C10.2102 1.05872 9.83919 0.829016 9.37229 0.829016Z" fill="currentColor" />
</svg>
