<svg width="16" height="16" viewBox="0 0 16 16" xmlns="http://www.w3.org/2000/svg">
	<path fill="currentColor" d="M13.3887 10.1333L14.19 10.614C14.2394 10.6436 14.2804 10.6855 14.3088 10.7356C14.3372 10.7857 14.3521 10.8424 14.3521 10.9C14.3521 10.9576 14.3372 11.0143 14.3088 11.0644C14.2804 11.1145 14.2394 11.1564 14.19 11.186L8.34333 14.694C8.23965 14.7563 8.12096 14.7892 8 14.7892C7.87904 14.7892 7.76035 14.7563 7.65667 14.694L1.81 11.186C1.76056 11.1564 1.71964 11.1145 1.69123 11.0644C1.66282 11.0143 1.64788 10.9576 1.64788 10.9C1.64788 10.8424 1.66282 10.7857 1.69123 10.7356C1.71964 10.6855 1.76056 10.6436 1.81 10.614L2.61133 10.1333L8 13.3667L13.3887 10.1333V10.1333ZM13.3887 7L14.19 7.48067C14.2394 7.51026 14.2804 7.55217 14.3088 7.60229C14.3372 7.65242 14.3521 7.70905 14.3521 7.76667C14.3521 7.82428 14.3372 7.88092 14.3088 7.93104C14.2804 7.98117 14.2394 8.02307 14.19 8.05267L8 11.7667L1.81 8.05267C1.76056 8.02307 1.71964 7.98117 1.69123 7.93104C1.66282 7.88092 1.64788 7.82428 1.64788 7.76667C1.64788 7.70905 1.66282 7.65242 1.69123 7.60229C1.71964 7.55217 1.76056 7.51026 1.81 7.48067L2.61133 7L8 10.2333L13.3887 7ZM8.34267 0.872667L14.19 4.38067C14.2394 4.41026 14.2804 4.45217 14.3088 4.50229C14.3372 4.55242 14.3521 4.60905 14.3521 4.66667C14.3521 4.72428 14.3372 4.78092 14.3088 4.83104C14.2804 4.88117 14.2394 4.92307 14.19 4.95267L8 8.66667L1.81 4.95267C1.76056 4.92307 1.71964 4.88117 1.69123 4.83104C1.66282 4.78092 1.64788 4.72428 1.64788 4.66667C1.64788 4.60905 1.66282 4.55242 1.69123 4.50229C1.71964 4.45217 1.76056 4.41026 1.81 4.38067L7.65667 0.872667C7.76035 0.810371 7.87904 0.77746 8 0.77746C8.12096 0.77746 8.23965 0.810371 8.34333 0.872667H8.34267ZM8 2.22133L3.92467 4.66667L8 7.112L12.0753 4.66667L8 2.22133Z" fill="currentColor" />
</svg>
