<svg width="16" height="16" viewBox="0 0 16 16" fill="none" xmlns="http://www.w3.org/2000/svg">
	<path d="M8 13.3333C9.41449 13.3333 10.771 12.7714 11.7712 11.7712C12.7714 10.771 13.3333 9.41449 13.3333 8C13.3333 6.58551 12.7714 5.22896 11.7712 4.22876C10.771 3.22857 9.41449 2.66667 8 2.66667C6.58551 2.66667 5.22896 3.22857 4.22876 4.22876C3.22857 5.22896 2.66667 6.58551 2.66667 8C2.66667 9.41449 3.22857 10.771 4.22876 11.7712C5.22896 12.7714 6.58551 13.3333 8 13.3333ZM8 14.6667C4.318 14.6667 1.33333 11.682 1.33333 8C1.33333 4.318 4.318 1.33333 8 1.33333C11.682 1.33333 14.6667 4.318 14.6667 8C14.6667 11.682 11.682 14.6667 8 14.6667ZM8 10.6667C8.70724 10.6667 9.38552 10.3857 9.88562 9.88562C10.3857 9.38552 10.6667 8.70724 10.6667 8C10.6667 7.29276 10.3857 6.61448 9.88562 6.11438C9.38552 5.61428 8.70724 5.33333 8 5.33333C7.29276 5.33333 6.61448 5.61428 6.11438 6.11438C5.61428 6.61448 5.33333 7.29276 5.33333 8C5.33333 8.70724 5.61428 9.38552 6.11438 9.88562C6.61448 10.3857 7.29276 10.6667 8 10.6667ZM8 12C6.93913 12 5.92172 11.5786 5.17157 10.8284C4.42143 10.0783 4 9.06087 4 8C4 6.93913 4.42143 5.92172 5.17157 5.17157C5.92172 4.42143 6.93913 4 8 4C9.06087 4 10.0783 4.42143 10.8284 5.17157C11.5786 5.92172 12 6.93913 12 8C12 9.06087 11.5786 10.0783 10.8284 10.8284C10.0783 11.5786 9.06087 12 8 12ZM8 9.33333C7.64638 9.33333 7.30724 9.19286 7.05719 8.94281C6.80714 8.69276 6.66667 8.35362 6.66667 8C6.66667 7.64638 6.80714 7.30724 7.05719 7.05719C7.30724 6.80714 7.64638 6.66667 8 6.66667C8.35362 6.66667 8.69276 6.80714 8.94281 7.05719C9.19286 7.30724 9.33333 7.64638 9.33333 8C9.33333 8.35362 9.19286 8.69276 8.94281 8.94281C8.69276 9.19286 8.35362 9.33333 8 9.33333Z" fill="currentColor" />
</svg>
