<svg width="16" height="16" viewBox="0 0 16 16" xmlns="http://www.w3.org/2000/svg">
	<path fill="currentColor" d="M13.3333 14.6667H12V13.3333C12 12.8029 11.7893 12.2942 11.4142 11.9191C11.0391 11.544 10.5304 11.3333 10 11.3333H6C5.46957 11.3333 4.96086 11.544 4.58579 11.9191C4.21071 12.2942 4 12.8029 4 13.3333V14.6667H2.66667V13.3333C2.66667 12.4493 3.01786 11.6014 3.64298 10.9763C4.2681 10.3512 5.11594 10 6 10H10C10.8841 10 11.7319 10.3512 12.357 10.9763C12.9821 11.6014 13.3333 12.4493 13.3333 13.3333V14.6667ZM8 8.66667C7.47471 8.66667 6.95457 8.5632 6.46927 8.36218C5.98396 8.16117 5.54301 7.86653 5.17157 7.49509C4.80014 7.12366 4.5055 6.6827 4.30448 6.1974C4.10346 5.7121 4 5.19195 4 4.66667C4 4.14138 4.10346 3.62123 4.30448 3.13593C4.5055 2.65063 4.80014 2.20967 5.17157 1.83824C5.54301 1.4668 5.98396 1.17217 6.46927 0.971148C6.95457 0.770129 7.47471 0.666666 8 0.666666C9.06087 0.666666 10.0783 1.08809 10.8284 1.83824C11.5786 2.58838 12 3.6058 12 4.66667C12 5.72753 11.5786 6.74495 10.8284 7.49509C10.0783 8.24524 9.06087 8.66667 8 8.66667V8.66667ZM8 7.33333C8.70724 7.33333 9.38552 7.05238 9.88562 6.55228C10.3857 6.05219 10.6667 5.37391 10.6667 4.66667C10.6667 3.95942 10.3857 3.28114 9.88562 2.78105C9.38552 2.28095 8.70724 2 8 2C7.29276 2 6.61448 2.28095 6.11438 2.78105C5.61428 3.28114 5.33333 3.95942 5.33333 4.66667C5.33333 5.37391 5.61428 6.05219 6.11438 6.55228C6.61448 7.05238 7.29276 7.33333 8 7.33333V7.33333Z" fill="currentColor" />
</svg>
