<svg width="305" height="121" viewBox="0 0 305 121" fill="none" xmlns="http://www.w3.org/2000/svg">
    <path
        d="M5 97.0288V80.1518L54.3586 1.60189H68.3312V25.6303H59.8113L26.5837 78.6643V79.5797H95.4812V97.0288H5ZM60.4929 118.769V91.8799L60.7201 84.3281V1.60189H80.5998V118.769H60.4929Z"
        fill="#FDDAA5" />
    <path
        d="M156.626 121C147.273 121 139.245 118.616 132.543 113.849C125.878 109.043 120.747 102.121 117.15 93.0813C113.591 84.0039 111.811 73.0768 111.811 60.2998C111.849 47.5228 113.648 36.6528 117.207 27.6898C120.804 18.6887 125.935 11.8235 132.6 7.09409C139.302 2.3647 147.311 0 156.626 0C165.941 0 173.949 2.3647 180.652 7.09409C187.354 11.8235 192.485 18.6887 196.044 27.6898C199.642 36.6909 201.44 47.5609 201.44 60.2998C201.44 73.1149 199.642 84.0612 196.044 93.1385C192.485 102.178 187.354 109.081 180.652 113.849C173.987 118.616 165.979 121 156.626 121ZM156.626 103.093C163.896 103.093 169.633 99.4889 173.836 92.2804C178.077 85.0337 180.197 74.3735 180.197 60.2998C180.197 50.9935 179.232 43.1748 177.301 36.8435C175.369 30.5122 172.643 25.7447 169.121 22.5409C165.6 19.299 161.435 17.678 156.626 17.678C149.393 17.678 143.675 21.3013 139.472 28.548C135.269 35.7565 133.149 46.3404 133.111 60.2998C133.073 69.6441 134.001 77.501 135.894 83.8705C137.825 90.2399 140.551 95.0456 144.073 98.2875C147.595 101.491 151.779 103.093 156.626 103.093Z"
        fill="#FDDAA5" />
    <path
        d="M262.059 120.371C253.88 120.371 246.61 118.96 240.248 116.137C233.925 113.315 228.926 109.386 225.253 104.352C221.58 99.3173 219.63 93.5009 219.403 86.9026H240.76C240.949 90.0682 241.99 92.8334 243.884 95.1981C245.777 97.5247 248.295 99.3363 251.438 100.633C254.581 101.93 258.102 102.578 262.002 102.578C266.168 102.578 269.86 101.854 273.078 100.404C276.297 98.9168 278.815 96.8572 280.633 94.2255C282.45 91.5939 283.34 88.5617 283.302 85.1291C283.34 81.582 282.431 78.4545 280.576 75.7466C278.72 73.0386 276.032 70.9218 272.51 69.3962C269.027 67.8706 264.823 67.1078 259.901 67.1078H249.62V50.7456H259.901C263.953 50.7456 267.493 50.04 270.522 48.6288C273.59 47.2177 275.994 45.2344 277.736 42.679C279.478 40.0854 280.33 37.0914 280.292 33.6969C280.33 30.3787 279.591 27.4991 278.077 25.0582C276.6 22.579 274.498 20.653 271.772 19.2799C269.083 17.9069 265.922 17.2203 262.286 17.2203C258.727 17.2203 255.433 17.8687 252.403 19.1655C249.374 20.4623 246.932 22.3121 245.076 24.7149C243.221 27.0796 242.236 29.902 242.123 33.182H221.845C221.997 26.6219 223.871 20.8627 227.469 15.9045C231.104 10.9081 235.951 7.01781 242.009 4.23357C248.068 1.41119 254.865 0 262.4 0C270.163 0 276.903 1.4684 282.621 4.4052C288.376 7.30386 292.826 11.2132 295.968 16.1333C299.111 21.0534 300.683 26.4884 300.683 32.4383C300.721 39.0366 298.789 44.5669 294.889 49.0293C291.027 53.4917 285.953 56.4095 279.667 57.7825V58.6979C287.846 59.8421 294.113 62.8933 298.468 67.8515C302.86 72.7716 305.037 78.8931 305 86.2161C305 92.7762 303.144 98.6498 299.433 103.837C295.76 108.986 290.686 113.029 284.211 115.965C277.774 118.902 270.39 120.371 262.059 120.371Z"
        fill="#FDDAA5" />
    <path
        d="M0 97.0288V80.1518L49.3586 1.60189H63.3312V25.6303H54.8113L21.5837 78.6643V79.5797H90.4812V97.0288H0ZM55.4929 118.769V91.8799L55.7201 84.3281V1.60189H75.5998V118.769H55.4929Z"
        fill="#F47B20" />
    <path
        d="M151.626 121C142.273 121 134.245 118.616 127.543 113.849C120.878 109.043 115.747 102.121 112.15 93.0813C108.591 84.0039 106.811 73.0768 106.811 60.2998C106.849 47.5228 108.648 36.6528 112.207 27.6898C115.804 18.6887 120.935 11.8235 127.6 7.09409C134.302 2.3647 142.311 0 151.626 0C160.941 0 168.949 2.3647 175.652 7.09409C182.354 11.8235 187.485 18.6887 191.044 27.6898C194.642 36.6909 196.44 47.5609 196.44 60.2998C196.44 73.1149 194.642 84.0612 191.044 93.1385C187.485 102.178 182.354 109.081 175.652 113.849C168.987 118.616 160.979 121 151.626 121ZM151.626 103.093C158.896 103.093 164.633 99.4889 168.836 92.2804C173.077 85.0337 175.197 74.3735 175.197 60.2998C175.197 50.9935 174.232 43.1748 172.301 36.8435C170.369 30.5122 167.643 25.7447 164.121 22.5409C160.6 19.299 156.435 17.678 151.626 17.678C144.393 17.678 138.675 21.3013 134.472 28.548C130.269 35.7565 128.149 46.3404 128.111 60.2998C128.073 69.6441 129.001 77.501 130.894 83.8705C132.825 90.2399 135.551 95.0456 139.073 98.2875C142.595 101.491 146.779 103.093 151.626 103.093Z"
        fill="#F47B20" />
    <path
        d="M257.059 120.371C248.88 120.371 241.61 118.96 235.248 116.137C228.925 113.315 223.926 109.386 220.253 104.352C216.58 99.3173 214.63 93.5009 214.403 86.9026H235.76C235.949 90.0682 236.99 92.8334 238.884 95.1981C240.777 97.5247 243.295 99.3363 246.438 100.633C249.581 101.93 253.102 102.578 257.002 102.578C261.168 102.578 264.86 101.854 268.078 100.404C271.297 98.9168 273.815 96.8572 275.633 94.2255C277.45 91.5939 278.34 88.5617 278.302 85.1291C278.34 81.582 277.431 78.4545 275.576 75.7466C273.72 73.0386 271.032 70.9218 267.51 69.3962C264.027 67.8706 259.823 67.1078 254.901 67.1078H244.62V50.7456H254.901C258.953 50.7456 262.493 50.04 265.522 48.6288C268.59 47.2177 270.994 45.2344 272.736 42.679C274.478 40.0854 275.33 37.0914 275.292 33.6969C275.33 30.3787 274.591 27.4991 273.077 25.0582C271.6 22.579 269.498 20.653 266.772 19.2799C264.083 17.9069 260.922 17.2203 257.286 17.2203C253.727 17.2203 250.433 17.8687 247.403 19.1655C244.374 20.4623 241.932 22.3121 240.076 24.7149C238.221 27.0796 237.236 29.902 237.123 33.182H216.845C216.997 26.6219 218.871 20.8627 222.469 15.9045C226.104 10.9081 230.951 7.01781 237.009 4.23357C243.068 1.41119 249.865 0 257.4 0C265.163 0 271.903 1.4684 277.621 4.4052C283.376 7.30386 287.826 11.2132 290.968 16.1333C294.111 21.0534 295.683 26.4884 295.683 32.4383C295.721 39.0366 293.789 44.5669 289.889 49.0293C286.027 53.4917 280.953 56.4095 274.667 57.7825V58.6979C282.846 59.8421 289.113 62.8933 293.468 67.8515C297.86 72.7716 300.037 78.8931 300 86.2161C300 92.7762 298.144 98.6498 294.433 103.837C290.76 108.986 285.686 113.029 279.211 115.965C272.774 118.902 265.39 120.371 257.059 120.371Z"
        fill="#F47B20" />
</svg>