<svg width="321" height="124" viewBox="0 0 321 124" fill="none" xmlns="http://www.w3.org/2000/svg">
	<path d="M5 100.322V80.3866L55.167 1.63696H72.4174V29.2315H62.208L30.5822 79.1004V80.0358H101.872V100.322H5ZM62.6774 121.369V94.2423L63.1468 85.4144V1.63696H86.9688V121.369H62.6774Z" fill="#FDDAA5" />
	<path d="M162.611 124C152.519 123.961 143.835 121.486 136.56 116.575C129.323 111.664 123.749 104.551 119.837 95.2362C115.965 85.9211 114.048 74.7157 114.087 61.62C114.087 48.5633 116.023 37.4358 119.896 28.2376C123.808 19.0394 129.382 12.0434 136.618 7.24942C143.894 2.41647 152.558 0 162.611 0C172.664 0 181.309 2.41647 188.546 7.24942C195.821 12.0824 201.415 19.0979 205.327 28.2961C209.238 37.4553 211.175 48.5633 211.135 61.62C211.135 74.7547 209.18 85.9796 205.268 95.2947C201.395 104.61 195.841 111.723 188.604 116.634C181.368 121.545 172.703 124 162.611 124ZM162.611 103.012C169.496 103.012 174.992 99.5625 179.099 92.6638C183.206 85.7652 185.24 75.4173 185.201 61.62C185.201 52.5387 184.262 44.9775 182.385 38.9364C180.546 32.8952 177.925 28.3545 174.522 25.3145C171.158 22.2744 167.188 20.7544 162.611 20.7544C155.766 20.7544 150.29 24.1647 146.182 30.9854C142.075 37.8061 140.002 48.0176 139.963 61.62C139.963 70.8182 140.882 78.4963 142.721 84.6544C144.598 90.7735 147.238 95.3726 150.642 98.4517C154.045 101.492 158.035 103.012 162.611 103.012Z" fill="#FDDAA5" />
	<path d="M224.128 100.322V80.3866L274.295 1.63696H291.545V29.2315H281.336L249.71 79.1004V80.0358H321V100.322H224.128ZM281.805 121.369V94.2423L282.275 85.4144V1.63696H306.097V121.369H281.805Z" fill="#FDDAA5" />
	<path d="M0 100.322V80.3866L50.167 1.63696H67.4174V29.2315H57.208L25.5822 79.1004V80.0358H96.8722V100.322H0ZM57.6774 121.369V94.2423L58.1468 85.4144V1.63696H81.9688V121.369H57.6774Z" fill="#F47B20" />
	<path d="M157.611 124C147.519 123.961 138.835 121.486 131.56 116.575C124.323 111.664 118.749 104.551 114.837 95.2362C110.965 85.9211 109.048 74.7157 109.087 61.62C109.087 48.5633 111.023 37.4358 114.896 28.2376C118.808 19.0394 124.382 12.0434 131.618 7.24942C138.894 2.41647 147.558 0 157.611 0C167.664 0 176.309 2.41647 183.546 7.24942C190.821 12.0824 196.415 19.0979 200.327 28.2961C204.238 37.4553 206.175 48.5633 206.135 61.62C206.135 74.7547 204.18 85.9796 200.268 95.2947C196.395 104.61 190.841 111.723 183.604 116.634C176.368 121.545 167.703 124 157.611 124ZM157.611 103.012C164.496 103.012 169.992 99.5625 174.099 92.6638C178.206 85.7652 180.24 75.4173 180.201 61.62C180.201 52.5387 179.262 44.9775 177.385 38.9364C175.546 32.8952 172.925 28.3545 169.522 25.3145C166.158 22.2744 162.188 20.7544 157.611 20.7544C150.766 20.7544 145.29 24.1647 141.182 30.9854C137.075 37.8061 135.002 48.0176 134.963 61.62C134.963 70.8182 135.882 78.4963 137.721 84.6544C139.598 90.7735 142.238 95.3726 145.642 98.4517C149.045 101.492 153.035 103.012 157.611 103.012Z" fill="#F47B20" />
	<path d="M219.128 100.322V80.3866L269.295 1.63696H286.545V29.2315H276.336L244.71 79.1004V80.0358H316V100.322H219.128ZM276.805 121.369V94.2423L277.275 85.4144V1.63696H301.097V121.369H276.805Z" fill="#F47B20" />
</svg>
